<?xml version="1.0" encoding="utf-8"?>
<!-- Generator: Adobe Illustrator 16.0.0, SVG Export Plug-In . SVG Version: 6.00 Build 0)  -->
<!DOCTYPE svg PUBLIC "-//W3C//DTD SVG 1.1//EN" "http://www.w3.org/Graphics/SVG/1.1/DTD/svg11.dtd">
<svg version="1.1" id="Awards" xmlns="http://www.w3.org/2000/svg" xmlns:xlink="http://www.w3.org/1999/xlink" x="0px" y="0px"
	 width="2000px" height="1592px" viewBox="0 0 2000 1592" enable-background="new 0 0 2000 1592" xml:space="preserve">
<g id="Hilfslinien" display="none">
</g>
<g id="_x31_00_beste_Plakate" display="none" opacity="0.5">
	<path display="inline" fill="#FFFFFF" d="M1386.108,1213.694v51.551v1.638c0,5.07-0.539,8.592-1.627,10.575
		c-1.08,1.994-3.255,2.985-6.509,2.985c-3.26,0-5.526-1.069-6.785-3.23c-1.271-2.162-1.895-6.296-1.895-12.403v-77.704h71.084
		v-110.166v-4.346c0-15.546-4.701-27.312-14.107-35.27c-4.709-3.979-10.225-6.697-16.549-8.146
		c-6.334-1.438-16.201-2.174-29.58-2.174c-8.686,0-15.924,0.189-21.701,0.559c-5.795,0.355-10.682,1.08-14.659,2.161
		c-3.984,1.081-7.326,2.53-10.035,4.348c-2.72,1.815-5.351,4.155-7.867,7.053c-6.881,7.957-10.318,19.902-10.318,35.816v194.288
		v5.416c0,17.017,5.248,29.675,15.746,37.987c3.978,3.266,9.576,5.616,16.814,7.054c7.231,1.449,17.184,2.175,29.854,2.175
		c15.547,0,26.861-0.914,33.91-2.753c7.062-1.827,13.117-5.673,18.188-11.534c4.346-4.771,7.137-9.796,8.412-15.11
		c1.26-5.304,1.895-14.142,1.895-26.499v-54.271L1386.108,1213.694L1386.108,1213.694z M1386.108,1143.689h-16.814v-55.483v-2.697
		c0-6.095,0.623-10.141,1.896-12.112c1.258-1.973,3.524-2.964,6.785-2.964c3.61,0,5.873,0.991,6.786,2.964
		c0.892,1.973,1.349,6.019,1.349,12.112v2.697L1386.108,1143.689L1386.108,1143.689z M1207.032,1071.513h14.651v193.732
		l-0.545,4.892c0.355,11.589,1.443,20.35,3.26,26.321c1.812,5.973,5.242,11.311,10.308,16.002c3.979,3.989,8.498,6.709,13.567,8.146
		c5.06,1.448,11.757,2.172,20.08,2.172h3.254h27.683v-41.786h-6.508h-3.261c-6.514,0-10.504-0.903-11.94-2.721
		c-1.447-1.794-2.172-7.043-2.172-15.734v-2.707v-188.316h23.881v-43.415h-23.881v-67.296h-53.726v67.296h-14.651V1071.513
		L1207.032,1071.513z M1122.374,1129.583v-42.881v-5.962c0.354-6.876,3.254-10.309,8.68-10.309c5.429,0,8.146,4.146,8.146,12.447
		v3.789v51.449l-45.588,31.414c-6.157,3.956-10.854,7.398-14.108,10.285s-5.794,5.95-7.6,9.204
		c-1.812,3.255-2.903,7.132-3.254,11.646c-0.368,4.514-0.547,10.563-0.547,18.143v50.904c0,10.105,0.457,17.506,1.359,22.197
		c0.896,4.69,2.44,9.037,4.613,12.994c3.609,5.794,8.592,10.396,14.922,13.816c6.329,3.434,13.104,5.139,20.354,5.139
		c11.936,0,21.887-4.58,29.849-13.74v12.658h54.27v-243.666c0-9.404-0.641-16.548-1.899-21.439
		c-1.275-4.881-3.716-9.673-7.326-14.375c-2.541-3.266-5.16-5.973-7.867-8.146c-2.72-2.173-5.974-3.8-9.772-4.881
		c-3.796-1.092-8.502-1.904-14.107-2.439c-5.611-0.546-12.393-0.825-20.349-0.825c-8.33,0-15.289,0.189-20.895,0.56
		c-5.617,0.366-10.408,1.103-14.387,2.194c-3.979,1.104-7.322,2.573-10.041,4.4c-2.707,1.828-5.338,4.213-7.867,7.144
		c-3.979,4.76-6.787,9.808-8.414,15.122c-1.621,5.306-2.438,13.049-2.438,23.234v49.924H1122.374L1122.374,1129.583z
		 M1139.2,1186.561v79.854c0,5.404-0.636,9.093-1.905,11.065c-1.271,1.982-3.343,2.964-6.241,2.964c-3.254,0-5.516-0.98-6.785-2.964
		c-1.271-1.974-1.895-6.028-1.895-12.147v-52.875v-3.778v-3.777c0-3.23,0.354-5.382,1.092-6.475
		c0.713-1.068,2.886-2.875,6.508-5.382L1139.2,1186.561z M926.458,1322.778h54.271v-141.646l21.707,141.646h55.896l-34.188-162.808
		l34.188-131.874h-55.896l-21.707,116.128V960.802h-54.271V1322.778z M834.746,1129.583v-42.881v-5.962
		c0.355-6.876,3.254-10.309,8.681-10.309c5.429,0,8.146,4.146,8.146,12.447v3.789v51.449l-45.589,31.414
		c-6.157,3.956-10.854,7.398-14.108,10.285c-3.259,2.887-5.794,5.95-7.6,9.204c-1.816,3.255-2.896,7.132-3.255,11.646
		c-0.366,4.514-0.545,10.563-0.545,18.143v50.904c0,10.105,0.445,17.506,1.354,22.197c0.902,4.69,2.445,9.037,4.619,12.994
		c3.609,5.794,8.586,10.396,14.921,13.816c6.323,3.434,13.104,5.139,20.349,5.139c11.939,0,21.887-4.58,29.854-13.74v12.658h54.264
		v-243.666c0-9.404-0.635-16.548-1.895-21.439c-1.275-4.881-3.718-9.673-7.332-14.375c-2.535-3.266-5.154-5.973-7.868-8.146
		c-2.714-2.173-5.968-3.8-9.768-4.881c-3.801-1.092-8.503-1.904-14.107-2.439c-5.616-0.546-12.403-0.825-20.354-0.825
		c-8.325,0-15.284,0.189-20.895,0.56c-5.61,0.366-10.402,1.103-14.381,2.194c-3.983,1.104-7.321,2.573-10.04,4.4
		c-2.708,1.828-5.338,4.213-7.867,7.144c-3.99,4.76-6.787,9.808-8.408,15.122c-1.633,5.306-2.445,13.049-2.445,23.234v49.924
		H834.746L834.746,1129.583z M851.573,1186.561v79.854c0,5.404-0.642,9.093-1.906,11.065c-1.271,1.982-3.343,2.964-6.24,2.964
		c-3.254,0-5.516-0.98-6.78-2.964c-1.275-1.974-1.899-6.028-1.899-12.147v-52.875v-3.778v-3.777c0-3.23,0.356-5.382,1.081-6.475
		c0.725-1.068,2.896-2.875,6.52-5.382L851.573,1186.561z M705.592,1322.778h54.274V960.812h-54.274V1322.778z M559.622,1391.501
		h54.264v-83.576c6.146,5.873,11.483,9.996,16.009,12.369c4.519,2.385,9.678,3.566,15.467,3.566
		c13.746,0,24.422-5.238,32.021-15.735c2.892-3.979,4.888-8.146,5.967-12.48c1.082-4.347,1.634-10.676,1.634-19v-5.416v-184.525
		v-5.962c0-10.13-0.464-17.908-1.359-23.335c-0.908-5.428-2.803-10.129-5.699-14.107c-3.254-5.07-7.689-9.037-13.295-11.946
		c-5.616-2.886-11.668-4.347-18.188-4.347c-6.15,0-11.577,1.293-16.27,3.855c-4.714,2.563-10.141,7.145-16.286,13.74v-16.504
		h-54.264V1391.501L559.622,1391.501z M630.707,1262.091v3.242v2.697c0,8.278-2.896,12.413-8.681,12.413
		c-3.255,0-5.429-0.979-6.509-2.964c-1.087-1.973-1.633-6.027-1.633-12.146v-3.242v-173.852v-2.696v-3.231
		c0-7.924,2.713-11.879,8.142-11.879c3.608,0,5.967,0.991,7.053,2.964c1.093,1.983,1.628,6.028,1.628,12.146v2.696V1262.091z"/>
	<path display="inline" fill="#FFFFFF" d="M1152.21,833.82v51.55v1.627c0,5.07-0.54,8.604-1.621,10.587
		c-1.086,1.995-3.265,2.986-6.514,2.986c-3.259,0-5.521-1.081-6.78-3.243c-1.276-2.15-1.905-6.296-1.905-12.402V807.22h71.097
		V697.055v-4.346c0-15.545-4.714-27.302-14.113-35.27c-4.708-3.979-10.226-6.688-16.555-8.136
		c-6.328-1.438-16.191-2.173-29.574-2.173c-8.683,0-15.924,0.178-21.702,0.546c-5.8,0.368-10.681,1.081-14.659,2.162
		c-3.979,1.092-7.322,2.541-10.035,4.346c-2.713,1.816-5.344,4.167-7.867,7.055c-6.881,7.968-10.312,19.901-10.312,35.814v194.288
		v5.428c0,17.006,5.237,29.664,15.734,37.988c3.979,3.254,9.584,5.605,16.826,7.055c7.232,1.438,17.172,2.161,29.849,2.161
		c15.551,0,26.862-0.902,33.916-2.74c7.054-1.828,13.109-5.673,18.181-11.546c4.341-4.758,7.138-9.795,8.407-15.1
		c1.271-5.314,1.906-14.152,1.906-26.511V833.82H1152.21z M1152.21,763.815h-16.82V708.32v-2.687c0-6.105,0.63-10.151,1.905-12.124
		c1.259-1.973,3.521-2.964,6.78-2.964c3.61,0,5.879,0.992,6.781,2.964c0.901,1.973,1.354,6.019,1.354,12.124v2.687V763.815
		L1152.21,763.815z M978.564,691.628h14.654V885.37l-0.547,4.881c0.357,11.59,1.438,20.359,3.254,26.322
		c1.807,5.973,5.243,11.311,10.31,16.013c3.979,3.979,8.502,6.697,13.565,8.146c5.065,1.448,11.752,2.161,20.087,2.161h3.255h27.675
		v-41.788h-6.515h-3.254c-6.508,0-10.496-0.892-11.934-2.707c-1.461-1.806-2.174-7.056-2.174-15.746v-2.708V691.628h23.875v-43.416
		h-23.875v-67.285H993.22v67.285h-14.653v43.416H978.564z M846.151,833.82v48.831v3.266v10.854c0,8.391,0.985,15.256,2.979,20.56
		c1.984,5.305,5.518,10.341,10.582,15.11c4.696,4.401,10.491,7.422,17.367,9.07c6.869,1.639,17.907,2.463,33.102,2.463
		c12.664,0,22.338-0.724,29.035-2.16c6.697-1.438,12.023-3.789,16.014-7.044c6.14-4.69,10.308-10.008,12.48-15.969
		c2.167-5.951,3.254-14.342,3.254-25.174v-4.346v-54.693v-7.043c0-5.761-0.368-10.642-1.087-14.609
		c-0.729-3.967-1.989-7.577-3.794-10.831c-1.816-3.254-4.258-6.14-7.333-8.67c-3.075-2.519-7.144-5.236-12.208-8.124l-33.102-18.955
		c-6.157-3.241-9.862-5.86-11.127-7.845c-1.275-1.982-2.091-5.505-2.44-10.554v-4.334v-40.619v-1.627
		c0-7.221,3.069-10.832,9.222-10.832c5.426,0,7.956,3.254,7.601,9.762v3.266v46.124h54.27v-54.271v-4.881
		c0-6.229-1.271-12.369-3.801-18.409c-2.535-6.051-6.156-11.088-10.854-15.11c-4.703-4.034-10.396-6.687-17.094-7.969
		c-6.697-1.28-17.818-1.928-33.375-1.928c-11.584,0-20.271,0.546-26.043,1.627c-5.795,1.081-10.865,3.064-15.2,5.951
		c-12.302,8.312-18.448,21.307-18.448,38.992v4.335v47.649v3.788c0,12.639,1.621,22.121,4.888,28.439
		c3.248,6.318,9.572,12.191,18.987,17.605l32.562,18.944c6.863,3.967,10.938,6.586,12.213,7.855c1.26,1.26,1.896,3.879,1.896,7.856
		v9.193v44.94v2.708c0,5.07-0.535,8.581-1.627,10.564c-1.087,1.995-3.255,2.986-6.509,2.986c-5.428,0-8.336-4.524-8.687-13.573
		v-2.719V833.82H846.151z M773.429,833.82v51.55v1.627c0,5.07-0.541,8.604-1.627,10.587c-1.087,1.995-3.26,2.986-6.514,2.986
		s-5.517-1.081-6.781-3.243c-1.27-2.15-1.899-6.296-1.899-12.402V807.22h71.092V697.055v-4.346c0-15.545-4.709-27.302-14.108-35.27
		c-4.708-3.979-10.224-6.688-16.554-8.136c-6.33-1.438-16.197-2.173-29.575-2.173c-8.687,0-15.925,0.178-21.708,0.546
		c-5.795,0.368-10.676,1.081-14.653,2.162c-3.982,1.092-7.327,2.541-10.04,4.346c-2.714,1.816-5.344,4.167-7.866,7.055
		c-6.878,7.968-10.314,19.901-10.314,35.814v194.288v5.428c0,17.006,5.244,29.664,15.74,37.988
		c3.979,3.254,9.584,5.605,16.821,7.055c7.237,1.438,17.179,2.161,29.849,2.161c15.551,0,26.867-0.902,33.921-2.74
		c7.054-1.828,13.104-5.673,18.181-11.546c4.341-4.758,7.139-9.795,8.408-15.1c1.261-5.314,1.9-14.152,1.9-26.511V833.82H773.429z
		 M773.429,763.815h-16.821V708.32v-2.687c0-6.105,0.631-10.151,1.899-12.124c1.267-1.973,3.527-2.964,6.781-2.964
		c3.616,0,5.873,0.992,6.787,2.964c0.896,1.973,1.354,6.019,1.354,12.124v2.687V763.815z M559.622,942.894h54.264V928.24
		c5.783,5.795,10.943,9.862,15.468,12.214c4.52,2.352,9.856,3.521,16.008,3.521c13.746,0,24.422-5.236,32.021-15.734
		c2.892-3.979,4.791-8.045,5.699-12.201c0.893-4.168,1.539-10.766,1.899-19.814v-4.881V706.828v-3.8
		c0-11.936-0.463-20.526-1.358-25.775c-0.908-5.249-2.803-9.851-5.699-13.84c-3.254-5.06-7.688-9.037-13.295-11.936
		c-5.616-2.896-11.668-4.346-18.187-4.346c-6.151,0-11.668,1.293-16.549,3.845c-4.881,2.563-10.225,7.144-16.008,13.74V581.14
		h-54.264L559.622,942.894L559.622,942.894z M630.707,882.707v3.243c0,6.14-0.535,10.195-1.628,12.18
		c-1.086,1.983-3.443,2.975-7.053,2.975c-3.255,0-5.429-0.99-6.509-2.975c-1.087-1.983-1.633-6.04-1.633-12.18v-3.243V708.41v-2.708
		c0-6.141,0.546-10.196,1.633-12.181c1.08-1.983,3.254-2.976,6.509-2.976c3.608,0,5.967,0.992,7.053,2.976
		c1.093,1.983,1.628,6.04,1.628,12.181v2.708V882.707z"/>
	<path display="inline" fill="#FFFFFF" d="M782.828,497.896v13.026c0,11.578,1.56,20.895,4.691,27.938
		c3.119,7.064,8.15,12.759,15.061,17.094c2.302,1.815,4.77,3.176,7.411,4.079c2.629,0.901,5.678,1.716,9.131,2.439
		c3.461,0.725,7.578,1.17,12.348,1.359c4.771,0.178,10.453,0.268,17.039,0.268c9.55,0,16.949-0.268,22.222-0.812
		c5.26-0.546,9.705-1.359,13.338-2.44c6.252-1.805,11.768-4.97,16.549-9.495c4.77-4.523,8.302-9.861,10.613-16.013
		c0.651-1.805,1.231-3.61,1.729-5.427c0.495-1.807,0.818-4.079,0.986-6.787c0.16-2.708,0.322-6.051,0.49-10.041
		c0.166-3.979,0.256-9.037,0.256-15.188V266.708v-15.74c0-2.524-0.174-5.238-0.502-8.141c-1.314-11.935-5.271-21.524-11.847-28.762
		c-2.641-2.529-5.438-4.697-8.401-6.508c-2.959-1.811-6.418-3.259-10.363-4.346c-3.955-1.081-8.73-1.805-14.33-2.167
		c-5.595-0.356-12.516-0.546-20.738-0.546c-6.586,0-12.27,0.095-17.039,0.273c-4.77,0.189-8.887,0.541-12.348,1.086
		c-3.453,0.541-6.502,1.354-9.131,2.44c-2.643,1.081-5.109,2.357-7.411,3.8c-6.909,4.34-11.94,10.041-15.062,17.094
		c-3.132,7.054-4.69,16.375-4.69,27.948v13.567L782.828,497.896L782.828,497.896z M858.382,488.669v7.601
		c0,12.658-3.287,18.988-9.873,18.988c-4.284,0-7.244-2.886-8.893-8.681c-0.324-1.449-0.568-3.254-0.736-5.427
		c-0.166-2.174-0.244-6.33-0.244-12.481v-213.28c0-5.059,0.078-8.764,0.244-11.126c0.168-2.346,0.412-4.246,0.736-5.695
		c0.991-6.151,3.955-9.227,8.893-9.227c3.621,0,6.175,1.359,7.655,4.067c1.48,2.719,2.218,7.516,2.218,14.386v7.594V488.669z
		 M631.22,497.896v13.026c0,11.578,1.561,20.895,4.691,27.938c3.125,7.064,8.146,12.759,15.061,17.094
		c2.302,1.815,4.771,3.176,7.416,4.079c2.63,0.901,5.672,1.716,9.132,2.439c3.461,0.725,7.572,1.17,12.343,1.359
		c4.773,0.178,10.452,0.268,17.038,0.268c9.551,0,16.948-0.268,22.227-0.812c5.26-0.546,9.7-1.359,13.333-2.44
		c6.246-1.805,11.769-4.97,16.548-9.495c4.759-4.523,8.303-9.861,10.609-16.013c0.656-1.805,1.236-3.61,1.727-5.427
		c0.502-1.807,0.825-4.079,0.992-6.787s0.323-6.051,0.49-10.041c0.168-3.979,0.245-9.037,0.245-15.188V266.708v-15.74
		c0-2.524-0.161-5.238-0.49-8.141c-1.315-11.935-5.271-21.524-11.851-28.762c-2.638-2.529-5.435-4.697-8.397-6.508
		c-2.958-1.811-6.419-3.259-10.369-4.346c-3.95-1.081-8.726-1.805-14.325-2.167c-5.6-0.356-12.508-0.546-20.738-0.546
		c-6.586,0-12.264,0.095-17.037,0.273c-4.771,0.189-8.883,0.541-12.342,1.086c-3.461,0.541-6.503,1.354-9.133,2.44
		c-2.646,1.081-5.115,2.357-7.416,3.8c-6.915,4.34-11.936,10.041-15.061,17.094c-3.132,7.054-4.691,16.375-4.691,27.948v13.567
		L631.22,497.896L631.22,497.896z M706.778,488.669v7.601c0,12.658-3.293,18.988-9.88,18.988c-4.278,0-7.242-2.886-8.887-8.681
		c-0.328-1.449-0.585-3.254-0.74-5.427c-0.174-2.174-0.246-6.33-0.246-12.481v-213.28c0-5.059,0.072-8.764,0.246-11.126
		c0.155-2.346,0.412-4.246,0.74-5.695c0.986-6.151,3.951-9.227,8.887-9.227c3.623,0,6.175,1.359,7.656,4.067
		c1.482,2.719,2.224,7.516,2.224,14.386v7.594V488.669z"/>
	<rect x="559.9" y="202.521" display="inline" fill="#FFFFFF" width="54.035" height="360.598"/>
</g>
<path id="ADC" display="none" opacity="0.5" fill="#FFFFFF" enable-background="new    " d="M1000.001,200.97l70.585,145.63
	c0.017,0.001,0.034,0.007,0.046,0.008l113.244-116.515l22.178,160.646c-0.104-0.054-0.208-0.103-0.307-0.152l144.002-75.978
	l-28.604,159.933c-0.162-0.165-0.33-0.321-0.491-0.483l160.736-27.811l-76.483,143.003c-0.053-0.102-0.11-0.202-0.162-0.304
	l161.165,23.179l-116.7,112.146c0,0.009,0,0.018,0.006,0.028l145.812,71.699l-145.432,70.49c-0.017,0.099-0.034,0.195-0.046,0.295
	l116.358,113.088l-160.061,22.097c-0.052,0.104-0.104,0.203-0.156,0.309l75.697,143.474l-159.013-28.441
	c-0.093,0.094-0.187,0.191-0.277,0.278l27.648,159.8l-141.964-75.929c-0.303,0.156-0.604,0.324-0.903,0.48l-23.006,159.967
	l-111.229-115.745c-0.515,0.081-1.023,0.174-1.539,0.255L1000,1391.031l-69.908-144.229c-0.603-0.093-1.197-0.208-1.804-0.301
	l-112.164,115.403l-21.929-158.873c-0.517-0.261-1.039-0.505-1.553-0.771l-142.392,75.124l28.269-158.069
	c-0.354-0.353-0.716-0.693-1.068-1.053l-158.841,27.485l75.636-141.413c-0.268-0.516-0.529-1.03-0.79-1.546l-159.362-22.919
	L549.68,868.798c-0.099-0.597-0.203-1.192-0.299-1.789l-144.41-71.011l144.426-70.003c0.08-0.521,0.18-1.036,0.261-1.556
	L434.095,612.126l159.461-22.016c0.156-0.308,0.311-0.616,0.47-0.927l-75.413-142.937L677.6,474.684
	c0.1-0.099,0.197-0.189,0.297-0.289L650.253,314.61l142.458,76.193c0.107-0.056,0.218-0.105,0.327-0.161l23.087-160.55
	l111.991,116.538c0.095-0.016,0.188-0.033,0.282-0.048L1000.001,200.97L1000.001,200.97z M1135.613,378.947L927.061,692.42h-4.408
	c-35.008-0.177-68.829,3.235-102.983,11.092c-14.617,3.363-29.137,8.178-44.089,9.757c-12.626,1.335-25.796-0.401-37.623-5.019
	c-9.173-3.587-17.315-10.024-23.735-17.364c-4.727-5.4-7.688-12.01-7.601-17.905c0.113-7.879,12.169-22.427,29.657-27
	c2.729,16.247,17.571,24.997,32.832,24.997c19.341,0,35.398-16.897,35.398-37.264c0-4.334-0.715-8.496-2.021-12.366
	c-2.527-7.468-6.771-13.505-12.558-17.896c-9.929-7.531-24.094-10.915-36.403-9.774c-16.278,1.508-31.227,8.219-43.484,18.626
	c-15.908,13.509-30.646,39.617-33.223,60.486c-4.794,38.827,5.822,72.004,35.377,93.206c14.068,10.096,33.118,13.618,50.896,12.206
	c16.635-1.32,37.148-10.571,57.686-21.836c29.174-16.001,54.562-40.028,90.045-40.028h0.326L776.571,918.619
	c-34.714,52.182-74.212,115.548-143.17,116.914v14.346l174.683,0.006v-14.352c-75.146,0-26.609-68.971-7.266-98.049l147.128-221.147
	c28.059,0.003,55.426,0.021,83.481,0.035l-4.874,65.216c-113.956,3.901-166.307,84.936-176.7,202.43
	c-10.308,116.48,53.875,194.041,149.865,194.041c61.627,0,103.898-31.404,124.611-84.854h-23.498
	c-16.766,35.734-45.629,55.921-88.479,55.921c-71.105,0-81.282-52.929-71.63-162.062c6.023-68.112,10.354-167.735,84.035-181.433
	l-13.517,180.818c-3.028,40.512-33.773,49.085-51.341,49.085v14.346h171.033c49.657,0.364,84.642-12.06,112.995-36.917
	c35.688-31.277,60.199-86.07,64.224-143.277c3.947-56.136-11.618-108.659-41.728-141.146
	c-23.903-25.784-53.073-37.623-100.266-37.623c-18.148,0-36.28-0.011-54.405-0.028L1135.613,378.947L1135.613,378.947z
	 M1101.73,823.274c18.467,16.277,30.352,42.484,36.285,78.573h14.813l10.258-115.919h-17.042
	c-5.269,36.061-12.897,39.013-25.166,28.437c-5.487-4.741-11.381-9.037-17.477-12.962l6.559-85.741
	c11.404,0,22.809,0.006,34.213,0.006c33.779,0,45.074,7.04,58.934,29.97c16.834,27.856,21.158,64.496,17.25,120.1
	c-4.363,62.018-17.528,102.696-39.087,129.604c-16.562,20.672-30.085,29.94-66.348,29.94c-6.756,0-17.396,0.358-22.682-4.48
	c-3.988-3.653-4.852-10.147-3.994-21.24L1101.73,823.274L1101.73,823.274z M964.018,691.679l78.134-117.453l-8.979,117.453
	C1010.2,691.655,987.01,691.685,964.018,691.679L964.018,691.679z"/>
<g id="DDC" display="none" opacity="0.5">
	<path display="inline" fill="#FFFFFF" d="M201,516.345v144.241h7.613c84.415,0,203.254,44.604,203.254,135.407
		c0,89.797-121.287,135.403-203.254,135.403H201v144.259h7.613c173.551,0,353.066-114.658,353.066-279.662
		c0-168.932-176.559-276.539-345.454-279.375v-0.272L201,516.345L201,516.345z"/>
	<path display="inline" fill="#FFFFFF" d="M838.745,516.345v144.241h7.596c84.414,0,203.25,44.604,203.25,135.407
		c0,89.797-121.282,135.403-203.25,135.403h-7.596v144.259h7.596c173.55,0,353.068-114.658,353.068-279.662
		c0-168.932-176.599-276.539-345.455-279.375v-0.272L838.745,516.345L838.745,516.345z"/>
	<path display="inline" fill="#FFFFFF" d="M1783.828,516.345v0.272c-168.93,2.837-345.471,110.443-345.471,279.375
		c0,165.003,179.532,279.662,353.066,279.662H1799V931.396h-7.575c-81.983,0-203.271-45.606-203.271-135.404
		c0-90.805,118.873-135.407,203.271-135.407H1799v-144.24H1783.828z"/>
</g>
<g id="IF" display="none" opacity="0.5">
	<rect x="426.98" y="646.438" display="inline" fill="#FFFFFF" width="317.483" height="745.062"/>
	<rect x="850.347" y="220.688" display="inline" fill="#FFFFFF" width="317.478" height="1170.812"/>
	<rect x="1276.648" y="220.688" display="inline" fill="#FFFFFF" width="319.312" height="319.307"/>
	<rect x="1276.648" y="646.43" display="inline" fill="#FFFFFF" width="319.312" height="319.313"/>
	<path display="inline" fill="#FFFFFF" d="M767.398,382.171c0,100.337-81.342,181.679-181.681,181.679
		s-181.681-81.342-181.681-181.679c0-100.332,81.342-181.671,181.681-181.671S767.398,281.839,767.398,382.171z"/>
</g>
<path id="German_Design_Award" opacity="0.5" fill="#FFFFFF" enable-background="new    " d="M1059.2,392.388l0.104,2.221
	c0,32.703-26.605,59.305-59.314,59.305c-32.696,0-59.301-26.603-59.301-59.305l0.086-2.221h-69.383c0,0.059-0.049,2.221-0.049,2.221
	c0,56.848,38.105,107.625,92.668,123.521l0.644,0.176v83.485l-0.78,0.068C813.449,619.936,700,747.944,700,899.609
	c0.006,165.438,134.602,300.004,300.016,300.004c165.409,0,299.984-134.589,299.984-300.004
	c0-151.666-113.442-279.673-263.88-297.751l-0.781-0.068v-83.485l0.65-0.176c54.556-15.896,92.649-66.685,92.649-123.521
	c0,0-0.037-2.125-0.037-2.221H1059.2z M772.753,863.238c8.476-53.478,35.888-102.512,77.14-138.046
	c41.687-35.937,94.997-55.724,150.098-55.724c126.906,0,230.163,103.246,230.163,230.141c0,126.912-103.244,230.156-230.139,230.156
	c-55.112,0-108.423-19.803-150.122-55.703c-41.252-35.552-68.665-84.574-77.14-138.053l-0.185-1.054h103.727l0.197,0.644
	c15.831,54.414,66.403,92.463,123.059,92.649v-69.383c-32.491-0.249-58.861-26.699-58.861-59.259
	c0-32.547,26.37-59.016,58.861-59.276v-69.344c-56.662,0.192-107.24,38.253-123.059,92.643l-0.197,0.649H772.567L772.753,863.238z"
	/>
<path id="Design_Preis" display="none" opacity="0.5" fill="#FFFFFF" enable-background="new    " d="M801.25,366.275
	c-125.526,90.128-231.746,236.591-231.746,424.896c0,284.874,202.778,486.056,479.58,486.056
	c167.367,0,317.035-61.157,405.553-162.554c-30.58,25.751-86.906,38.626-125.531,38.626c-218.864,0-289.68-210.837-289.68-362.128
	c0-265.559,172.199-478.008,291.291-478.008c117.48,0,288.066,212.449,288.066,478.008c0,315.455-252.664,600.329-617.979,600.329
	c-342.783,0-619.589-265.562-619.589-616.422c0-252.686,135.184-457.086,325.084-574.578L801.25,366.275z M1092.537,791.171
	c0,136.805,59.543,312.235,236.568,312.235c180.244,0,238.18-175.431,238.18-312.235c0-234.98-146.449-426.506-238.18-426.506
	C1243.812,364.666,1092.537,556.19,1092.537,791.171z"/>
<path id="Berlin_Type_Award_1_" display="none" opacity="0.5" fill="#FFFFFF" enable-background="new    " d="M1008.736,990.267
	c63.12,0,120.015-23.84,160.31-61.997c-30.646-29.051-70.922-49.771-116.198-58.026c11.083,11.203,17.889,26.591,17.889,43.563
	c0,34.277-27.764,62.029-61.999,62.029c-34.278,0-62.042-27.752-62.042-62.029c0-16.974,6.849-32.36,17.927-43.563
	c-45.315,8.257-85.57,28.977-116.196,58.026C888.68,966.427,945.594,990.267,1008.736,990.267 M1432.979,627.244
	c-18.568,41.417-28.718,119.932-75.837,254.066c-47.123,134.188-163.88,177.099-163.88,270.781
	c0,93.663,28.239,239.397,28.239,239.397l-385.629,0.01c0,0,25.75-155.579,25.75-239.905s-99.226-139.975-153.36-269.95
	c-6.577-15.79-59.631-102.462-84.554-232.073c-24.898-129.611-74.925-290.742-54.943-280.596
	c19.98,10.096,55.711,15.469,73.535,80.188c17.847,64.717,51.585,216.136,83.041,271.372c23.571,41.448,26.808,73.899,40.878,69.189
	c18.527-6.194-44.695-123.004-38.055-272.669c6.639-149.667,10.954-300.142,30.439-283.782
	c19.523,16.372,48.842,37.464,51.521,113.594c2.676,76.099-15.937,210.493,4.356,279.683
	c15.189,51.904,34.943,145.983,51.625,142.995c20.461-3.642-20.707-135.225,10.043-285.316
	c30.75-150.069,59.177-301.303,77.105-282.067c17.907,19.234,45.4,44.611,36.145,121.799
	c-9.293,77.146-50.191,210.161-39.858,282.774c7.74,54.487,8.423,151.647,26.434,151.076c21.561-0.695-1.181-136.822,52.643-280.948
	c53.845-144.125,105.448-289.745,121.011-268.146c15.564,21.58,40.047,50.629,19.091,125.691
	c-20.998,75.062-82.729,200.834-82.876,274.184c-0.123,55.037-12.593,151.211,5.979,153.4
	c20.397,2.386,15.79-115.543,84.284-229.655c68.474-114.081,135.037-229.738,147.028-209.383
	c11.973,20.354,31.417,48.243,2.407,108.634c-29.008,60.402-102.667,157.944-111.858,219.757
	c-6.909,46.417-14.465,183.425-1.89,196.012c76.007,76.024,61.584-110.699,121.552-192.079
	C1375.607,597.874,1451.509,585.859,1432.979,627.244"/>
<path id="Corporate_Design_Preis_1_" display="none" opacity="0.5" fill="#FFFFFF" enable-background="new    " d="
	M1411.204,557.152c-143.278,35.136-260.474,108.234-372.581,86.358c-18.747-4.696-33.107-15.543-31.222-23.069
	c1.497-6.356,6.379-8.25,24.56-7.836c4.44,0.339,9.012,0.545,13.585,0.569c0.076,0,0.181,0,0.334,0l0,0
	c132.846,0,193.354-54.494,308.664-82.726c204.613-50.135,271.01-18.84,288.285-46.916c10.382-16.973-36-110.284-311.09-42.896
	c-124.193,30.39-228.062,91.474-326.095,75.903c-19.266-4.569-34.063-15.674-32.203-23.328c1.626-6.774,6.273-6.722,27.892-7.138
	c0.438,0,0.877-0.023,1.315-0.023c2.789-0.054,5.861-0.132,9.298-0.183c-0.077-0.054-0.104-0.054-0.182-0.104
	c98.29,0,156.011-47.538,246.76-69.805c170.031-41.648,225.688-14.012,239.761-38.146c8.574-14.582-30.938-100.241-259.542-44.217
	c-65.726,16.088-123.058,48.94-178.866,62.434c-155.184,37.628-406.747,55.896-406.747-30.775c0-100.941,237.54-5.188,335.394-4.825
	c102.268,0.363,236.352-100.062,167.94-100.347c-273.205-1.01-192.709-58.749-425.443-59.579
	c-232.712-0.858-481.228,137.142-482.363,429.851C247.521,923.012,369.725,1391.5,369.725,1391.5h488.51
	c0,0-181.448-222.801-237.566-412.438c-56.091-189.614,71.536-199.189,196.375-153.205
	c127.991,47.123,254.869,105.977,579.131-23.406c127.835-51.017,250.298-13.78,265.714-41.415
	c9.324-16.661-35.406-112.544-288.543-50.498c-111.334,27.271-205.156,86.176-294.306,73.125
	c-19.162-4.567-33.804-15.207-31.92-22.836c1.782-7.369,8.06-8.718,34.503-7.474c0.361,0.026,0.775,0.051,1.163,0.104
	c0.954,0,1.834,0.051,2.841,0.104c-0.079-0.053-0.156-0.053-0.207-0.104c100.331,2.542,218.766-65.107,351.455-97.622
	c230.152-56.414,293.347-12.845,312.742-44.372C1761.341,592.392,1720.588,481.355,1411.204,557.152z M551.665,678.933
	c-192.219,0-227.107-97.623-104.801-133.122c-7.438,11.366-11.827,24.81-11.827,39.341c0,40.531,33.83,73.436,75.668,73.436
	c41.786,0,75.667-32.903,75.667-73.436c0-20.268-8.444-38.561-22.053-51.847c71.379,2.904,135.426,30.254,181.473,72.684
	C697.008,650.907,628.105,678.933,551.665,678.933z"/>
<g id="Stiftung_Buchkunst" display="none" opacity="0.5">
	<path display="inline" fill="#FFFFFF" d="M1799.123,453.439v-9.604c-5.568,3.539-11.959,6.054-19.205,6.054
		c-9.953,0-14.326-5.547-14.326-15.995v-50.709h33.531v-8.758h-33.531v-24.942l-9.762,2.874v22.069h-20.896v8.758h20.896v52.052
		c0,19.703,11.791,23.421,23.918,23.421C1787.66,458.658,1793.049,456.968,1799.123,453.439 M1714.217,434.233
		c0-6.064-2.199-10.606-4.385-13.144c-5.387-6.063-10.775-8.092-25.439-11.114c-14.664-2.874-18.371-5.397-20.727-8.092
		c-1.342-1.521-2.188-3.539-2.188-6.401c0-9.255,6.75-14.664,19.194-14.664c13.164,0,18.529,4.892,19.884,11.631h10.108
		c-0.834-6.223-3.201-10.786-7.574-14.314c-4.711-3.708-12.129-5.388-20.887-5.388c-12.127,0-19.703,2.346-24.437,7.248
		c-3.877,3.866-6.401,9.254-6.401,15.487c0,5.061,1.354,8.937,4.215,12.465c2.346,2.862,7.248,6.74,22.069,9.593
		c17.527,3.549,20.888,5.747,23.931,9.783c1.34,1.859,2.354,4.881,2.354,6.909c0,8.916-6.569,15.993-21.233,15.993
		c-17.349,0-22.062-3.865-24.427-12.635h-10.278c0.846,5.737,2.187,9.783,6.241,13.829c4.714,4.871,12.806,7.237,26.951,7.237
		c8.759,0,19.545-1.184,26.273-7.754C1711.691,446.868,1714.217,440.973,1714.217,434.233 M1617.34,456.968v-54.577
		c0-8.768-3.877-17.008-8.42-21.064c-7.744-6.74-16.186-8.578-24.934-8.578c-15.836,0-23.084,6.74-29.137,14.812v-13.131h-9.275
		v82.541h9.783v-47.836c0-16.682,12.444-27.626,27.106-27.626c7.078,0,13.65,1.511,19.039,6.899
		c3.867,3.866,6.063,10.1,6.063,18.529v50.034h9.773V456.968z M1508.176,456.968v-82.541h-9.783v47.848
		c0,16.67-12.465,27.615-27.106,27.615c-7.078,0-13.64-1.511-19.037-6.898c-3.879-3.876-6.063-10.101-6.063-18.53v-50.034h-9.783
		v54.576c0,8.759,3.889,17.021,8.43,21.066c7.756,6.74,16.187,8.589,24.934,8.589c15.836,0,23.084-6.74,29.138-14.822v13.132
		H1508.176z M1412.652,456.968l-50.881-46.991l47.172-35.549h-13.978l-41.625,31.176v-69.926h-9.752v121.291h9.752v-42.109
		l45.322,42.109L1412.652,456.968L1412.652,456.968z M1308.537,456.968V401.04c0-8.432-3.199-15.836-7.066-19.714
		c-6.74-6.74-15.172-8.578-22.926-8.578c-6.74,0-17.336,1.68-24.922,11.283v-48.354h-9.793v121.291h9.793v-49.865
		c0-16.671,10.777-25.598,23.084-25.598c15.318,0,22.059,8.747,22.059,22.745v52.717H1308.537z M1214.545,436.589h-10.627
		c-1.342,8.42-7.238,13.301-18.352,13.301c-16.345,0-24.943-14.146-24.943-34.188c0-20.22,8.252-34.197,25.281-34.197
		c9.94,0,15.838,3.539,17.338,9.941h10.277c-2.187-14.325-12.962-18.7-27.615-18.7c-21.226,0-35.562,14.653-35.562,42.955
		c0,28.641,13.66,42.956,35.224,42.956C1204.773,458.658,1213.701,449.044,1214.545,436.589 M1115.65,456.968v-82.541h-9.771v47.848
		c0,16.67-12.467,27.615-27.131,27.615c-7.078,0-13.639-1.511-19.037-6.898c-3.867-3.876-6.063-10.101-6.063-18.53v-50.034h-9.763
		v54.576c0,8.759,3.89,17.021,8.433,21.066c7.744,6.74,16.164,8.589,24.932,8.589c15.836,0,23.072-6.74,29.137-14.822v13.132
		H1115.65z M1002.262,415.702c0,20.379-9.255,34.188-27.447,34.188c-18.191,0-27.468-13.809-27.468-34.188
		c0-20.39,9.275-34.197,27.468-34.197S1002.262,395.312,1002.262,415.702 M1012.551,415.702c0-9.952-1.184-23.094-10.617-33.024
		c-8.42-8.579-18.203-9.931-26.273-9.931c-12.973,0-21.573,4.543-28.312,12.963v-50.034h-9.771v121.291h9.265v-10.943
		c7.079,8.431,15.679,12.634,28.82,12.634c8.071,0,17.854-1.341,26.274-9.941C1011.367,438.786,1012.551,425.633,1012.551,415.702"
		/>
	<path display="inline" fill="#FFFFFF" d="M884.847,413.336c0,19.047-8.759,31.841-25.599,31.841
		c-16.852,0-25.608-12.793-25.608-31.841c0-19.038,8.757-31.831,25.608-31.831C876.088,381.505,884.847,394.299,884.847,413.336
		 M894.62,455.964v-81.526h-9.265v10.766c-6.91-8.42-14.495-12.456-27.289-12.456c-5.896,0-16.514,1.173-24.426,9.424
		c-9.096,9.444-10.279,21.742-10.279,31.165c0,9.444,1.184,21.742,10.279,31.165c7.913,8.262,18.53,9.445,24.426,9.445
		c12.973,0,19.871-4.205,26.78-12.636v13.302c0,13.807-7.575,22.068-27.108,22.068c-14.504,0-19.556-4.712-20.4-10.438H826.9
		c0.846,8.769,7.067,18.868,30.838,18.868C883.167,485.111,894.62,475.498,894.62,455.964 M790.167,456.968v-54.577
		c0-8.757-3.866-17.008-8.42-21.064c-7.744-6.74-16.174-8.578-24.942-8.578c-15.826,0-23.072,6.74-29.138,14.812v-13.12h-9.254
		v82.529h9.762v-47.836c0-16.682,12.466-27.626,27.119-27.626c7.079,0,13.66,1.511,19.049,6.899
		c3.866,3.877,6.063,10.1,6.063,18.529v50.034h9.761V456.968z M681.015,456.968v-82.53h-9.782v47.837
		c0,16.67-12.467,27.615-27.131,27.615c-7.066,0-13.638-1.5-19.016-6.889c-3.887-3.887-6.074-10.11-6.074-18.53v-50.033h-9.771
		v54.576c0,8.748,3.866,17.011,8.42,21.056c7.754,6.74,16.174,8.589,24.932,8.589c15.836,0,23.083-6.74,29.148-14.822v13.132
		H681.015L681.015,456.968z M581.096,453.439v-9.604c-5.535,3.539-11.949,6.054-19.197,6.054c-9.94,0-14.313-5.536-14.313-15.995
		v-50.709h33.511v-8.747h-33.511v-24.942l-9.783,2.863v22.081h-20.876v8.746h20.876v52.052c0,19.713,11.8,23.421,23.918,23.421
		C569.665,458.658,575.052,456.968,581.096,453.439 M503.784,383.185v-8.747H474.14v-9.444c0-16.005,6.223-20.56,21.552-20.56h8.093
		v-8.746h-9.097c-20.548,0-30.33,7.246-30.33,27.615v11.135h-28.811v8.747h28.811v73.783h9.782v-73.783H503.784z M410.288,335.688
		h-17.526v15.825h17.526V335.688z M408.767,456.968v-82.53h-39.765v8.747h29.982v73.783H408.767z M351.993,453.439v-9.604
		c-5.557,3.539-11.959,6.054-19.206,6.054c-9.942,0-14.315-5.536-14.315-15.995v-50.709h33.521v-8.747h-33.521v-24.942l-9.772,2.863
		v22.081h-20.885v8.746H308.7v52.052c0,19.713,11.79,23.421,23.918,23.421C340.541,458.658,345.928,456.968,351.993,453.439
		 M267.085,434.233c0-6.064-2.197-10.606-4.384-13.144c-5.388-6.063-10.775-8.081-25.429-11.114
		c-14.653-2.874-18.372-5.397-20.728-8.092c-1.353-1.511-2.187-3.528-2.187-6.401c0-9.255,6.73-14.664,19.206-14.664
		c13.143,0,18.531,4.901,19.873,11.631h10.11c-0.845-6.223-3.202-10.786-7.586-14.314c-4.711-3.697-12.127-5.388-20.885-5.388
		c-12.129,0-19.703,2.346-24.425,7.248c-3.878,3.866-6.413,9.254-6.413,15.487c0,5.05,1.352,8.937,4.215,12.465
		c2.366,2.862,7.247,6.74,22.069,9.604c17.526,3.539,20.897,5.736,23.929,9.772c1.352,1.859,2.355,4.881,2.355,6.909
		c0,8.916-6.571,15.993-21.224,15.993c-17.357,0-22.069-3.865-24.424-12.635h-10.28c0.845,5.737,2.187,9.783,6.233,13.829
		c4.711,4.881,12.804,7.237,26.96,7.237c8.759,0,19.534-1.184,26.274-7.743C264.56,446.868,267.085,440.973,267.085,434.233"/>
	<path display="inline" fill="#FFFFFF" d="M967.071,647.658c-17.58,0-26.527,13.343-26.527,33.045
		c0,19.691,8.947,33.035,26.527,33.035c17.589,0,26.526-13.344,26.526-33.035C993.598,661,984.66,647.658,967.071,647.658
		 M994.095,720.574v-10.575c-6.836,8.135-15.14,12.202-27.838,12.202c-7.817,0-17.252-1.3-25.396-9.593
		c-9.106-9.614-10.236-22.312-10.236-31.905c0-9.613,1.13-22.291,10.236-31.904c8.146-8.304,17.579-9.614,25.396-9.614
		c12.54,0,20.833,4.396,27.341,12.551v-48.345h9.445v117.184H994.095L994.095,720.574z"/>
	<path display="inline" fill="#FFFFFF" d="M1049.084,603.392h16.924v15.299h-16.924V603.392z M1055.105,720.574v-71.29h-28.979
		v-8.452h38.412v79.741L1055.105,720.574L1055.105,720.574z"/>
	<path display="inline" fill="#FFFFFF" d="M1136.621,647.489c-13.66,0-21.805,7.816-23.59,22.312h47.19
		C1158.447,654.979,1150.291,647.489,1136.621,647.489 M1112.873,677.936c0,19.692,4.541,35.804,25.227,35.804
		c11.875,0,16.757-3.095,19.523-8.8h10.248c-4.227,11.24-11.389,17.263-29.771,17.263c-27.192,0-35.485-18.879-35.485-44.267
		c0-25.396,14.801-38.75,34.008-38.75c19.545,0,34.188,13.037,34.188,38.75H1112.873z"/>
	<path display="inline" fill="#FFFFFF" d="M987.429,892.756c-6.519,6.359-16.936,7.49-25.407,7.49
		c-13.66,0-21.479-2.272-26.043-7.006c-3.908-3.908-5.196-7.808-6.021-13.354h9.931c2.282,8.473,6.836,12.212,23.602,12.212
		c14.168,0,20.517-6.823,20.517-15.467c0-1.942-0.993-4.881-2.28-6.654c-2.938-3.909-6.182-6.021-23.115-9.444
		c-14.326-2.769-19.038-6.508-21.319-9.287c-2.769-3.412-4.067-7.15-4.067-12.031c0-6.033,2.44-11.242,6.181-14.979
		c4.554-4.733,11.896-6.994,23.602-6.994c8.474,0,15.625,1.627,20.188,5.196c4.236,3.423,6.497,7.818,7.32,13.841h-9.762
		c-1.31-6.509-6.518-11.23-19.206-11.23c-12.043,0-18.562,5.209-18.562,14.168c0,2.769,0.812,4.711,2.123,6.181
		c2.261,2.598,5.853,5.039,20.021,7.807c14.146,2.938,19.364,4.881,24.562,10.756c2.124,2.43,4.235,6.824,4.235,12.676
		C993.925,883.152,991.485,888.846,987.429,892.756"/>
	<path display="inline" fill="#FFFFFF" d="M1056.584,900.234c-20.834,0-34.029-13.828-34.029-41.498
		c0-27.34,13.84-41.496,34.347-41.496c14.155,0,24.584,4.225,26.707,18.063h-9.931c-1.479-6.19-7.184-9.612-16.776-9.612
		c-16.438,0-24.414,13.522-24.414,33.045c0,19.377,8.293,33.047,24.098,33.047c10.732,0,16.428-4.732,17.738-12.867h10.235
		C1083.768,890.959,1075.135,900.234,1056.584,900.234"/>
	<path display="inline" fill="#FFFFFF" d="M1164.787,898.607v-50.941c0-13.502-6.498-21.965-21.32-21.965
		c-11.875,0-22.291,8.621-22.291,24.742v48.164h-9.444V781.426h9.444v46.716c7.322-9.274,17.58-10.913,24.076-10.913
		c7.49,0,15.625,1.797,22.146,8.294c3.75,3.761,6.834,10.923,6.834,19.058v54.027H1164.787z"/>
	<path display="inline" fill="#FFFFFF" d="M1258.029,784.849h10.731v15.456h-10.731V784.849z M1222.533,784.849h10.922v15.456
		h-10.922V784.849z M1245.658,826.02c-17.084,0-28.154,13.681-28.154,32.718c0,19.049,11.07,32.729,28.154,32.729
		c17.094,0,28.154-13.681,28.154-32.729C1273.812,839.699,1262.752,826.02,1245.658,826.02 M1245.658,900.234
		c-23.273,0-38.086-16.756-38.086-41.498s14.812-41.496,38.086-41.496c23.273,0,38.084,16.754,38.084,41.496
		C1283.742,883.478,1268.932,900.234,1245.658,900.234"/>
	<path display="inline" fill="#FFFFFF" d="M1374.545,898.607v-48.344c0-8.136-2.123-14.155-5.863-17.896
		c-5.196-5.207-11.557-6.666-18.393-6.666c-14.168,0-26.211,10.576-26.211,26.688v46.22h-9.434v-79.74h8.946v12.688
		c5.863-7.807,12.869-14.325,28.166-14.325c8.463,0,16.599,1.797,24.088,8.294c4.396,3.908,8.136,11.896,8.136,20.348v52.737h-9.436
		V898.607z"/>
	<path display="inline" fill="#FFFFFF" d="M1469.891,892.756c-6.508,6.359-16.926,7.49-25.397,7.49
		c-13.67,0-21.486-2.272-26.041-7.006c-3.908-3.908-5.209-7.808-6.031-13.354h9.931c2.282,8.473,6.846,12.212,23.61,12.212
		c14.168,0,20.506-6.823,20.506-15.467c0-1.942-0.981-4.881-2.28-6.654c-2.929-3.909-6.171-6.021-23.105-9.444
		c-14.314-2.769-19.037-6.508-21.318-9.287c-2.778-3.412-4.067-7.15-4.067-12.031c0-6.033,2.432-11.242,6.17-14.979
		c4.563-4.733,11.896-6.994,23.61-6.994c8.464,0,15.625,1.627,20.189,5.196c4.227,3.423,6.496,7.818,7.311,13.841h-9.762
		c-1.309-6.509-6.508-11.23-19.207-11.23c-12.043,0-18.551,5.209-18.551,14.168c0,2.769,0.814,4.711,2.113,6.181
		c2.271,2.598,5.854,5.039,20.031,7.807c14.145,2.938,19.354,4.881,24.561,10.756c2.125,2.43,4.238,6.824,4.238,12.676
		C1476.398,883.152,1473.957,888.846,1469.891,892.756"/>
	<path display="inline" fill="#FFFFFF" d="M1538.561,900.234c-11.727,0-23.114-3.57-23.114-22.608v-50.298h-20.181v-8.472h20.181
		v-21.319l9.434-2.778v24.099h32.392v8.472h-32.392v48.988c0,10.09,4.236,15.467,13.84,15.467c7.005,0,13.185-2.451,18.552-5.863
		v9.286C1551.418,898.619,1546.209,900.234,1538.561,900.234"/>
	<path display="inline" fill="#FFFFFF" d="M1612.596,825.533c-13.67,0-21.805,7.817-23.602,22.301h47.203
		C1634.4,833.023,1626.266,825.533,1612.596,825.533 M1588.836,855.969c0,19.693,4.555,35.814,25.229,35.814
		c11.886,0,16.767-3.096,19.533-8.789h10.248c-4.225,11.229-11.389,17.24-29.781,17.24c-27.182,0-35.485-18.867-35.485-44.267
		c0-25.387,14.812-38.729,34.019-38.729c19.534,0,34.188,13.016,34.188,38.729L1588.836,855.969L1588.836,855.969z"/>
	<path display="inline" fill="#FFFFFF" d="M1740.986,898.607v-48.344c0-8.136-2.123-14.155-5.863-17.896
		c-5.197-5.207-11.557-6.666-18.383-6.666c-14.166,0-26.221,10.576-26.221,26.688v46.22h-9.435v-79.74h8.949v12.688
		c5.862-7.807,12.864-14.325,28.163-14.325c8.474,0,16.607,1.797,24.087,8.294c4.405,3.908,8.137,11.896,8.137,20.348v52.737h-9.435
		V898.607z"/>
	<path display="inline" fill="#FFFFFF" d="M967.071,1003.746c-17.58,0-26.527,13.333-26.527,33.023
		c0,19.692,8.947,33.048,26.527,33.048c17.589,0,26.526-13.354,26.526-33.048C993.598,1017.079,984.66,1003.746,967.071,1003.746
		 M994.095,1076.663v-10.586c-6.836,8.145-15.14,12.213-27.838,12.213c-7.817,0-17.252-1.312-25.396-9.614
		c-9.106-9.592-10.236-22.291-10.236-31.905c0-9.592,1.13-22.291,10.236-31.894c8.146-8.314,17.579-9.604,25.396-9.604
		c12.54,0,20.833,4.396,27.341,12.529V959.46h9.445v117.203H994.095L994.095,1076.663z"/>
	<path display="inline" fill="#FFFFFF" d="M1072.684,1003.577c-13.67,0-21.813,7.817-23.6,22.291h47.201
		C1094.5,1011.057,1086.355,1003.577,1072.684,1003.577 M1048.924,1034.003c0,19.713,4.555,35.814,25.219,35.814
		c11.886,0,16.767-3.097,19.533-8.79h10.258c-4.225,11.24-11.389,17.263-29.791,17.263c-27.172,0-35.475-18.879-35.475-44.287
		c0-25.387,14.811-38.729,34.016-38.729c19.535,0,34.188,13.016,34.188,38.729H1048.924z"/>
	<path display="inline" fill="#FFFFFF" d="M1200.262,1076.663v-12.698c-5.873,7.817-12.867,14.325-28.166,14.325
		c-8.451,0-16.606-1.796-24.086-8.304c-4.395-3.909-8.135-11.876-8.135-20.349V996.9h9.424v48.344
		c0,8.146,2.133,14.156,5.873,17.896c5.197,5.221,11.547,6.679,18.383,6.679c14.166,0,26.221-10.586,26.221-26.697V996.9h9.425
		v79.763H1200.262L1200.262,1076.663z"/>
	<path display="inline" fill="#FFFFFF" d="M1275.102,1078.29c-11.717,0-23.114-3.592-23.114-22.63v-50.287h-20.179V996.9h20.179
		v-21.319l9.444-2.768V996.9h32.392v8.473h-32.392v48.979c0,10.1,4.234,15.467,13.828,15.467c7.004,0,13.195-2.451,18.562-5.864
		v9.287C1287.969,1076.652,1282.75,1078.29,1275.102,1078.29"/>
	<path display="inline" fill="#FFFFFF" d="M1366.887,1070.789c-6.508,6.359-16.926,7.501-25.397,7.501
		c-13.67,0-21.488-2.282-26.041-6.994c-3.898-3.919-5.209-7.828-6.033-13.354h9.932c2.281,8.451,6.847,12.202,23.611,12.202
		c14.168,0,20.506-6.835,20.506-15.456c0-1.965-0.973-4.881-2.281-6.677c-2.928-3.909-6.17-6.021-23.104-9.444
		c-14.314-2.758-19.037-6.508-21.318-9.275c-2.779-3.423-4.067-7.162-4.067-12.043c0-6.022,2.43-11.241,6.17-14.98
		c4.563-4.712,11.896-6.994,23.61-6.994c8.463,0,15.625,1.627,20.189,5.221c4.227,3.412,6.498,7.796,7.311,13.828h-9.762
		c-1.311-6.52-6.508-11.24-19.207-11.24c-12.043,0-18.551,5.208-18.551,14.167c0,2.768,0.824,4.723,2.113,6.189
		c2.271,2.6,5.852,5.028,20.03,7.798c14.146,2.937,19.354,4.881,24.562,10.755c2.123,2.439,4.235,6.823,4.235,12.697
		C1373.395,1061.186,1370.953,1066.88,1366.887,1070.789"/>
	<path display="inline" fill="#FFFFFF" d="M1436.041,1078.29c-20.834,0-34.029-13.84-34.029-41.521
		c0-27.329,13.84-41.496,34.346-41.496c14.156,0,24.584,4.226,26.709,18.064h-9.952c-1.457-6.18-7.162-9.593-16.757-9.593
		c-16.438,0-24.413,13.502-24.413,33.024c0,19.375,8.293,33.047,24.098,33.047c10.734,0,16.428-4.713,17.738-12.849h10.237
		C1463.225,1069.004,1454.592,1078.29,1436.041,1078.29"/>
	<path display="inline" fill="#FFFFFF" d="M1544.254,1076.663v-50.964c0-13.501-6.518-21.953-21.33-21.953
		c-11.873,0-22.291,8.621-22.291,24.721v48.196h-9.434V959.46h9.434v46.716c7.332-9.274,17.58-10.901,24.088-10.901
		c7.479,0,15.625,1.796,22.144,8.304c3.739,3.74,6.834,10.902,6.834,19.037v54.049L1544.254,1076.663L1544.254,1076.663z"/>
	<path display="inline" fill="#FFFFFF" d="M1625.611,1003.577c-13.67,0-21.816,7.817-23.603,22.291h47.203
		C1647.428,1011.057,1639.281,1003.577,1625.611,1003.577 M1601.842,1034.003c0,19.713,4.562,35.814,25.228,35.814
		c11.887,0,16.768-3.097,19.534-8.79h10.259c-4.228,11.24-11.39,17.263-29.793,17.263c-27.172,0-35.476-18.879-35.476-44.287
		c0-25.387,14.812-38.729,34.019-38.729c19.532,0,34.188,13.016,34.188,38.729H1601.842z"/>
	<path display="inline" fill="#FFFFFF" d="M1754.002,1076.663v-48.344c0-8.146-2.123-14.179-5.863-17.918
		c-5.207-5.197-11.557-6.655-18.393-6.655c-14.166,0-26.211,10.575-26.211,26.687v46.23h-9.434V996.9h8.946v12.698
		c5.854-7.817,12.869-14.325,28.166-14.325c8.463,0,16.599,1.796,24.088,8.304c4.396,3.909,8.136,11.875,8.136,20.348v52.738
		H1754.002L1754.002,1076.663z"/>
	<path display="inline" fill="#FFFFFF" d="M971.307,1181.779c-17.578,0-26.537,13.354-26.537,33.036
		c0,19.702,8.959,33.057,26.537,33.057c17.579,0,26.527-13.354,26.527-33.057C997.834,1195.134,988.886,1181.779,971.307,1181.779
		 M997.507,1246.709c-8.135,8.314-17.58,9.614-25.387,9.614c-12.698,0-20.991-4.067-27.838-12.202v10.575h-8.938v-117.183h9.424
		v48.321c6.52-8.135,14.822-12.519,27.353-12.519c7.807,0,17.252,1.3,25.387,9.593c9.127,9.603,10.258,22.302,10.258,31.905
		C1007.766,1224.418,1006.635,1237.117,997.507,1246.709"/>
	<path display="inline" fill="#FFFFFF" d="M1083.904,1140.916h10.754v15.479h-10.754V1140.916z M1048.428,1140.916h10.914v15.479
		h-10.914V1140.916z M1097.258,1254.696v-12.698c-5.854,7.817-12.856,14.325-28.154,14.325c-8.463,0-16.606-1.796-24.098-8.304
		c-4.395-3.909-8.135-11.875-8.135-20.338v-52.737h9.445v48.333c0,8.155,2.11,14.155,5.852,17.906
		c5.219,5.208,11.559,6.678,18.393,6.678c14.168,0,26.211-10.575,26.211-26.697v-46.22h9.437v79.752H1097.258L1097.258,1254.696z"/>
	<path display="inline" fill="#FFFFFF" d="M1172.582,1256.323c-20.832,0-34.018-13.84-34.018-41.497
		c0-27.342,13.84-41.521,34.346-41.521c14.168,0,24.584,4.247,26.697,18.065h-9.933c-1.469-6.169-7.162-9.593-16.766-9.593
		c-16.438,0-24.414,13.513-24.414,33.047c0,19.375,8.303,33.023,24.086,33.023c10.756,0,16.439-4.712,17.75-12.847h10.246
		C1199.775,1247.048,1191.135,1256.323,1172.582,1256.323"/>
	<path display="inline" fill="#FFFFFF" d="M1280.805,1254.696v-50.953c0-13.501-6.506-21.964-21.317-21.964
		c-11.886,0-22.304,8.621-22.304,24.73v48.187h-9.442v-117.192h9.442v46.705c7.322-9.265,17.58-10.902,24.078-10.902
		c7.49,0,15.638,1.797,22.146,8.305c3.748,3.751,6.844,10.914,6.844,19.048v54.038L1280.805,1254.696L1280.805,1254.696z"/>
	<path display="inline" fill="#FFFFFF" d="M1362.152,1181.61c-13.67,0-21.806,7.817-23.603,22.302h47.215
		C1383.969,1189.09,1375.834,1181.61,1362.152,1181.61 M1338.404,1212.047c0,19.703,4.553,35.804,25.229,35.804
		c11.873,0,16.754-3.085,19.523-8.778h10.258c-4.236,11.229-11.4,17.252-29.781,17.252c-27.192,0-35.485-18.868-35.485-44.276
		c0-25.387,14.811-38.74,34.006-38.74c19.545,0,34.188,13.026,34.188,38.74L1338.404,1212.047L1338.404,1212.047z"/>
	<path display="inline" fill="#FFFFFF" d="M1475.742,1198.049v-1.141c0-9.275-5.535-15.298-16.289-15.298
		c-14.812,0-21.975,9.771-21.975,23.938v49.146h-9.425v-79.764h10.078v10.101c1.479-2.123,3.105-4.078,4.894-5.535
		c5.207-4.564,10.573-6.191,18.223-6.191c14.812,0,24.426,7.648,24.426,21.816v2.926L1475.742,1198.049L1475.742,1198.049z"/>
</g>
</svg>
