<?xml version="1.0" encoding="iso-8859-1"?>
<!-- Generator: Adobe Illustrator 18.0.0, SVG Export Plug-In . SVG Version: 6.00 Build 0)  -->
<!DOCTYPE svg PUBLIC "-//W3C//DTD SVG 1.1//EN" "http://www.w3.org/Graphics/SVG/1.1/DTD/svg11.dtd">
<svg version="1.1" id="Capa_1" xmlns="http://www.w3.org/2000/svg" xmlns:xlink="http://www.w3.org/1999/xlink" x="0px" y="0px"
	 viewBox="0 0 421.492 421.492" style="enable-background:new 0 0 421.492 421.492;" xml:space="preserve">
<g>
	<path d="M245.56,144.869c-0.467-1.41-1.772-2.371-3.257-2.4c-1.475-0.018-2.825,0.884-3.345,2.275l-8.657,23.188
		c-0.401,1.075-0.25,2.277,0.403,3.22c0.654,0.942,1.729,1.504,2.876,1.504h16.332c1.124,0,2.179-0.54,2.837-1.451
		c0.658-0.911,0.838-2.082,0.485-3.149L245.56,144.869z M238.623,165.656l3.415-9.149l3.028,9.149H238.623z"/>
	<path d="M177.155,243.93c-0.467-1.41-1.772-2.372-3.257-2.4c-1.478-0.019-2.825,0.884-3.345,2.275l-8.657,23.188
		c-0.401,1.075-0.251,2.277,0.403,3.22c0.654,0.942,1.729,1.504,2.876,1.504h16.332c1.124,0,2.179-0.539,2.837-1.451
		c0.658-0.911,0.838-2.082,0.485-3.149L177.155,243.93z M170.218,264.717l3.415-9.149l3.028,9.149H170.218z"/>
	<path d="M349.485,139.094h-18.032c-1.933,0-3.5,1.567-3.5,3.5v10.658c0,1.933,1.567,3.5,3.5,3.5h18.092
		c3.797,0,9.822-2.458,9.822-9.053C359.367,142.552,355.396,139.094,349.485,139.094z M349.545,149.752h-14.592v-3.658h14.532
		c2.882,0,2.882,1.208,2.882,1.605C352.367,149.667,349.564,149.752,349.545,149.752z"/>
	<path d="M359.365,207.9h58.627c1.933,0,3.5-1.567,3.5-3.5v-31.289c0-1.933-1.567-3.5-3.5-3.5h-35.653
		c3.631-3.22,7.057-7.752,8.516-13.95c1.171-4.971,3.712-22.179-12.731-34.896c-4.593-3.552-10.785-5.643-18.931-6.39
		c-0.107-0.01-0.213-0.015-0.32-0.015h-60.989c-1.933,0-3.5,1.567-3.5,3.5v77.788l-26.002-78.884
		c-0.473-1.435-1.813-2.404-3.324-2.404H219.23c-1.518,0-2.862,0.978-3.33,2.421l-8.712,26.896v-25.817c0-1.933-1.567-3.5-3.5-3.5
		H83.191c-13.562,0-29.327,11.537-29.327,26.41c0,11.305,1.933,19.577,11.346,29.22H3.5c-1.933,0-3.5,1.567-3.5,3.5V204.4
		c0,1.933,1.567,3.5,3.5,3.5h87.966c0.192,0,0.385-0.016,0.575-0.047c14.584-2.428,24.983-13.721,25.292-27.462
		c0.293-13.073-4.621-20.726-12.089-28.194l-0.828-0.827c-0.804-0.803-1.594-1.594-2.327-2.333h30.052V204.4
		c0,1.933,1.567,3.5,3.5,3.5h30.757c1.933,0,3.5-1.567,3.5-3.5v-55.363h33.791c0.726,0,1.399-0.221,1.958-0.599l-17.779,54.883
		c-0.345,1.065-0.16,2.231,0.499,3.137c0.659,0.906,1.711,1.441,2.831,1.441h31.662c1.356,0,2.591-0.784,3.167-2.011l4.62-9.83
		h21.776l4.616,9.829c0.577,1.228,1.811,2.012,3.168,2.012h33.377c0.792,0,1.542-0.28,2.151-0.757
		c0.595,0.467,1.335,0.757,2.15,0.757h33.569c1.933,0,3.5-1.567,3.5-3.5v-15.398c6.977,6.501,16.035,14.956,16.903,15.824
		c2.928,2.926,6.74,3.075,7.475,3.075 M200.188,142.037h-33.791c-1.933,0-3.5,1.567-3.5,3.5V200.9H139.14v-55.363
		c0-1.933-1.567-3.5-3.5-3.5H96.357c-2.929,0-4.026,1.595-4.42,2.546c-1.234,2.979,0.449,4.661,7.53,11.737l0.826,0.826
		c6.541,6.541,10.281,12.415,10.042,23.087c-0.23,10.244-8.096,18.706-19.167,20.666H7v-23.909h67.289
		c1.48,0,2.801-0.931,3.297-2.326c0.497-1.395,0.062-2.951-1.085-3.887c-14.548-11.865-15.636-19.585-15.636-30.007
		c0-10.752,12.214-19.41,22.327-19.41h116.996V142.037z M262.429,200.9l-4.616-9.829c-0.577-1.228-1.811-2.012-3.168-2.012h-26.222
		c-1.356,0-2.591,0.784-3.167,2.011l-4.62,9.83h-24.627l25.766-79.539h40.751l26.218,79.539H262.429z M414.492,200.9l-55.157,0.001
		v-0.001c-0.015-0.001-1.532-0.028-2.53-1.025c-1.481-1.48-22.091-20.662-22.968-21.477c-0.661-0.615-1.517-0.938-2.385-0.938
		c-0.472,0-0.947,0.095-1.397,0.291c-1.277,0.556-2.103,1.816-2.103,3.209v19.94h-26.569v-79.539h57.327
		c6.609,0.625,11.699,2.287,15.131,4.941c12.778,9.882,11.39,22.702,10.2,27.754c-2.722,11.559-15.431,15.671-15.549,15.708
		c-1.656,0.508-2.691,2.152-2.434,3.865c0.257,1.713,1.729,2.98,3.461,2.98h44.973V200.9z"/>
	<path d="M417.992,213.592h-54.748c-13.561,0-29.326,11.537-29.326,26.41c0,11.419,1.33,18.706,12.147,28.84h-29.932
		c3.631-3.22,7.057-7.752,8.516-13.95c1.171-4.971,3.712-22.179-12.731-34.896c-4.593-3.552-10.785-5.643-18.931-6.39
		c-0.106-0.01-0.213-0.015-0.32-0.015h-60.989c-1.933,0-3.5,1.567-3.5,3.5v84.463l-28.202-85.559
		c-0.473-1.435-1.814-2.404-3.324-2.404h-45.828c-1.518,0-2.862,0.978-3.33,2.421l-28.033,86.539
		c-0.345,1.065-0.16,2.231,0.499,3.137c0.659,0.906,1.711,1.441,2.83,1.441h31.662c1.363,0,2.603-0.792,3.176-2.029l4.626-9.983
		h21.749l4.621,9.982c0.573,1.238,1.813,2.03,3.176,2.03h33.377c1.123,0,2.178-0.539,2.836-1.449
		c0.173-0.24,0.309-0.499,0.416-0.768c0.512,1.297,1.77,2.217,3.249,2.217h33.569c1.933,0,3.5-1.567,3.5-3.5v-15.376l19.178,17.933
		c0.648,0.606,1.503,0.943,2.391,0.943h81.203c0.192,0,0.385-0.016,0.575-0.047c14.584-2.428,24.983-13.721,25.292-27.462
		c0.294-13.073-4.621-20.726-12.09-28.194l-0.828-0.827c-0.803-0.803-1.594-1.593-2.327-2.333h35.852c1.933,0,3.5-1.567,3.5-3.5
		v-27.676C421.492,215.159,419.925,213.592,417.992,213.592z M194.038,300.131l-4.621-9.982c-0.573-1.238-1.813-2.03-3.176-2.03
		h-26.222c-1.363,0-2.603,0.792-3.176,2.029l-4.626,9.983h-24.613l25.766-79.539h40.751l26.218,79.539H194.038z M414.492,241.268
		H376.41c-2.929,0-4.027,1.595-4.421,2.546c-1.233,2.98,0.449,4.661,7.53,11.738l0.826,0.826
		c6.541,6.54,10.281,12.415,10.042,23.087c-0.23,10.244-8.096,18.706-19.167,20.666h-79.523l-24.059-22.497
		c-1.02-0.952-2.505-1.209-3.784-0.654c-1.279,0.555-2.106,1.816-2.106,3.21v19.941h-26.569v-79.539h57.327
		c6.609,0.625,11.699,2.287,15.131,4.941c12.778,9.882,11.39,22.702,10.2,27.754c-2.722,11.559-15.431,15.671-15.549,15.709
		c-1.656,0.508-2.691,2.152-2.434,3.865c0.257,1.713,1.729,2.98,3.461,2.98h48.152c0.175,0.016,0.354,0.019,0.533,0.008
		c2.01-0.123,5.048-0.308,5.916-3.062c0.376-1.194,0.208-2.924-1.395-4.198c-14.94-11.891-15.603-17.668-15.603-28.588
		c0-10.752,12.214-19.41,22.326-19.41h51.248V241.268z"/>
	<path d="M283.28,238.324h-18.032c-1.933,0-3.5,1.567-3.5,3.5v10.658c0,1.933,1.567,3.5,3.5,3.5h18.092
		c3.797,0,9.822-2.458,9.822-9.053C293.162,241.783,289.191,238.324,283.28,238.324z M283.34,248.982h-14.592v-3.658h14.532
		c2.882,0,2.882,1.209,2.882,1.605C286.162,248.897,283.358,248.982,283.34,248.982z"/>
	<path d="M139.102,215.037c-0.658-0.908-1.712-1.445-2.833-1.445H99.378c-1.711,0-3.172,1.238-3.453,2.926l-2.204,13.269
		l-5.694-14.013c-0.536-1.319-1.818-2.182-3.243-2.182h-29.8c-1.424,0-2.707,0.863-3.243,2.182l-5.695,14.013l-2.204-13.268
		c-0.28-1.689-1.741-2.927-3.453-2.927H3.5c-1.121,0-2.174,0.537-2.833,1.445c-0.658,0.907-0.842,2.075-0.494,3.141l28.25,86.539
		c0.47,1.44,1.813,2.414,3.327,2.414h29.892c1.607,0,3.008-1.095,3.396-2.654l4.846-19.469l4.847,19.469
		c0.389,1.559,1.789,2.654,3.396,2.654h29.892c1.515,0,2.857-0.974,3.327-2.414l28.25-86.539
		C139.944,217.112,139.76,215.944,139.102,215.037z M105.48,300.131H80.862l-7.582-30.457c-0.389-1.559-1.789-2.654-3.396-2.654
		s-3.008,1.095-3.396,2.654l-7.581,30.457H34.289L8.324,220.592h29.099l3.748,22.565c0.257,1.545,1.509,2.732,3.066,2.905
		c1.563,0.179,3.04-0.71,3.629-2.161l9.473-23.31h25.089l9.472,23.31c0.59,1.451,2.07,2.335,3.629,2.161
		c1.557-0.173,2.809-1.359,3.066-2.905l3.748-22.566h29.1L105.48,300.131z"/>
</g>
<g>
</g>
<g>
</g>
<g>
</g>
<g>
</g>
<g>
</g>
<g>
</g>
<g>
</g>
<g>
</g>
<g>
</g>
<g>
</g>
<g>
</g>
<g>
</g>
<g>
</g>
<g>
</g>
<g>
</g>
</svg>
