<?xml version="1.0" encoding="utf-8"?>
<!-- Generator: Adobe Illustrator 16.0.0, SVG Export Plug-In . SVG Version: 6.00 Build 0)  -->
<!DOCTYPE svg PUBLIC "-//W3C//DTD SVG 1.1//EN" "http://www.w3.org/Graphics/SVG/1.1/DTD/svg11.dtd">
<svg version="1.1" id="Ebene_1" xmlns="http://www.w3.org/2000/svg" xmlns:xlink="http://www.w3.org/1999/xlink" x="0px" y="0px"
	 width="2000px" height="1592px" viewBox="0 0 2000 1592" enable-background="new 0 0 2000 1592" xml:space="preserve">
<g opacity="0.5">
	
		<radialGradient id="SVGID_1_" cx="-494.709" cy="2180.2041" r="290.774" gradientTransform="matrix(1 0 0 -1 1737 3089.5)" gradientUnits="userSpaceOnUse">
		<stop  offset="0" style="stop-color:#FFFFFF"/>
		<stop  offset="1" style="stop-color:#1A1A1A"/>
	</radialGradient>
	<path fill="url(#SVGID_1_)" d="M1347.641,963.217c1.084,14.736-3.433,28.984-13.133,48.528
		c-8.031,16.208-21.437,28.87-34.812,45.321c-13.426,16.517-29.453,31.605-47.688,45.662c-18.229,14.056-34.44,27.492-55.571,36.885
		c-21.03,9.359-40.123,19.757-58.129,21.893c-17.877,2.137-33.793,0.843-46.958-3.53c-13.032-4.339-23.362-11.722-30.278-21.795
		c-6.816-9.975-10.281-22.637-9.729-37.646c0.565-14.865,5.019-30.67,12.563-46.556c7.48-15.736,18.036-31.604,30.879-46.745
		c12.774-15.073,27.897-29.472,44.642-42.344c16.728-12.854,35.119-24.264,54.535-33.354c19.479-9.117,38.214-15.075,55.438-18.029
		c17.358-2.986,33.261-2.924,46.86,0.04c13.764,2.996,26.004,7.771,34.326,16.573
		C1338.994,937.027,1346.572,948.628,1347.641,963.217L1347.641,963.217z M1282.079,1021.348
		c-0.356-7.092-2.655-12.903-6.542-17.355c-3.837-4.438-9.229-7.516-15.771-9.166c-6.509-1.636-14.149-1.848-22.556-0.55
		c-8.369,1.276-17.503,4.047-27.022,8.436c-9.521,4.371-18.541,9.926-26.733,16.225c-8.176,6.3-15.526,13.359-21.729,20.774
		c-6.201,7.416-11.222,15.188-14.701,22.88c-3.516,7.724-5.475,15.399-5.507,22.54c-0.032,7.205,1.896,13.195,5.393,17.908
		c3.515,4.727,8.646,8.128,15.024,10.086c6.413,1.961,14.058,2.461,22.572,1.361c8.583-1.103,18.006-3.808,27.867-8.227
		c9.909-4.438,19.333-10.17,27.866-16.743c8.517-6.571,16.126-13.975,22.474-21.714c6.312-7.721,11.334-15.771,14.67-23.688
		C1280.734,1036.229,1282.436,1028.488,1282.079,1021.348z"/>
	
		<linearGradient id="SVGID_2_" gradientUnits="userSpaceOnUse" x1="400.3276" y1="5278.1875" x2="400.3276" y2="4899.3662" gradientTransform="matrix(0.797 0 0 -0.797 443.6572 4625.2339)">
		<stop  offset="0" style="stop-color:#FFFFFF"/>
		<stop  offset="1" style="stop-color:#000000"/>
	</linearGradient>
	<path fill="url(#SVGID_2_)" d="M810,451.337c-54.487,33.931-86.87,51.782-126.832,100.699
		c-15.998,19.617-25.487,30.879-36.609,53.611c-5.555,11.324-12.129,29.972-12.129,29.972l-2.785,20.927l-4.307,28.305
		l-2.153,25.373l-0.34,8.605c0.065-2.161,0.195-4.364,0.405-6.613c0.21-2.244,0.484-4.524,0.857-6.85
		c0.342-2.315,0.776-4.679,1.264-7.084c0.518-2.391,1.068-4.833,1.716-7.312c6.509-25.058,17.585-51.387,35.315-80.903
		c19.494-32.49,34.343-49.07,61.284-75.392c26.75-26.126,44.529-45.137,76.85-68.841c19.657-14.426,67.603-44.641,95.938-48.511
		c11.318-1.545-25.714,1.229-40.205,8.071C838.708,434.636,828.15,440.043,810,451.337z"/>
	
		<radialGradient id="SVGID_3_" cx="720.4229" cy="5297.4629" r="840.829" gradientTransform="matrix(0.797 0 0 -0.797 443.6572 4625.2339)" gradientUnits="userSpaceOnUse">
		<stop  offset="0" style="stop-color:#FFFFFF"/>
		<stop  offset="1" style="stop-color:#1A1A1A"/>
	</radialGradient>
	<path fill="url(#SVGID_3_)" d="M1205.782,473.375l-20.693-21.503l-21.989-19.43l-11.105-8.696l-25.098-10.014
		c-13.648-4.331-30.395-10.542-48.514-13.142c-17.326-2.468-44.351-5.958-65.674-1.438c-21.019,4.46-35.073,9.391-58.939,19.574
		c-23.625,10.079-48.479,22.978-74.108,38.716c-35.592,21.844-69.626,47.288-100.926,74.71
		c-31.3,27.444-60.138,57.125-85.171,87.453c-25.274,30.604-46.892,62.112-63.375,92.879
		c-16.774,31.272-23.834,62.096-28.562,90.499c-0.906,5.562-0.098,10.798-0.471,15.979c-0.372,5.214,4.469,38.164,10.151,61.984
		c2.445,10.168,3.66,15.979,7.062,25.874c3.966,11.608,12.419,28.896,12.419,28.896l4.177,7.393l9.342,15.252
		c-3.449-5.345-6.331-11.173-8.645-17.454c-2.299-6.234-4.018-12.938-5.15-20.087c-1.117-7.093-1.65-14.619-1.587-22.587
		c0.065-7.902,0.745-16.217,2.024-24.944c4.517-30.658,16.305-63.61,33.598-96.958c16.969-32.781,39.379-66.201,65.66-98.529
		c26.053-32.011,56.137-63.229,88.894-91.963c32.725-28.724,68.444-55.239,105.93-77.867c30.345-18.338,59.731-32.854,87.518-43.579
		c28.142-10.873,54.729-17.909,79.019-21.083c24.707-3.224,47.087-2.461,66.289,2.381
		C1177.447,450.633,1193.751,459.832,1205.782,473.375"/>
	
		<radialGradient id="SVGID_4_" cx="861.7695" cy="5192.4014" r="897.2255" gradientTransform="matrix(0.797 0 0 -0.797 443.6572 4625.2339)" gradientUnits="userSpaceOnUse">
		<stop  offset="0" style="stop-color:#FFFFFF"/>
		<stop  offset="1" style="stop-color:#1A1A1A"/>
	</radialGradient>
	<path fill="url(#SVGID_4_)" d="M1339.561,637.886l-34.164-90.316l-8.855-19.766c-11.902-20.012-31.479-33.079-53.839-41.2
		c-21.827-7.935-60.771-7.465-89.833-4.468c-28.53,2.946-59.96,11.066-93.121,24.254c-32.693,12.995-67.213,30.992-102.593,53.961
		c-39.362,25.575-76.377,55.143-109.863,86.896c-33.521,31.769-63.796,65.999-89.51,100.876
		c-25.94,35.202-47.46,71.368-62.988,106.577c-15.804,35.823-25.534,70.944-27.428,103.271c-0.713,12.226-0.292,23.623,1.229,34.197
		c1.522,10.687,4.146,20.499,7.821,29.438c3.707,9.031,8.452,17.162,14.216,24.367c5.813,7.271,12.629,13.588,20.403,18.931
		l26.845,17.1l25.568,13.648l28.317,12.482l25.356,9.034c-12.208-3.821-23.104-9.229-32.513-16.191
		c-9.312-6.865-17.181-15.253-23.495-25.032c-6.22-9.684-10.883-20.759-13.896-33.179c-2.979-12.257-4.308-25.824-3.869-40.655
		c0.892-30.49,9.196-63.557,23.301-97.234c13.859-33.128,33.42-67.092,57.287-100.082c23.642-32.717,51.686-64.72,82.854-94.303
		c31.153-29.566,65.739-56.974,102.607-80.477c36.819-23.478,72.784-41.055,106.527-52.761
		c34.277-11.899,79.243-20.646,107.742-20.451c29.113,0.194,54.485,6.751,74.337,19.874c20.307,13.435,24.19,36.044,30.878,63.476
		L1339.561,637.886z"/>
	
		<radialGradient id="SVGID_5_" cx="971.0015" cy="4963.7168" r="765.4183" gradientTransform="matrix(0.797 0 0 -0.797 443.6572 4625.2339)" gradientUnits="userSpaceOnUse">
		<stop  offset="0" style="stop-color:#FFFFFF"/>
		<stop  offset="1" style="stop-color:#1A1A1A"/>
	</radialGradient>
	<path fill="url(#SVGID_5_)" d="M1366.212,824.436c2.382-6.623,16.646-11.521,18.508-18.216c1.88-6.728,3.497-13.498,4.858-20.29
		c1.376-6.809,5.456-44.072,5.779-50.979c-1.424-4.008-1.021-7.635-3.189-11.725c-10.15-19.234-20.548-26.539-37.324-37.815
		c-19.232-12.92-56.104-21.381-84.487-21.965c-27.884-0.574-59.376,4.729-92.909,15.811c-33.062,10.931-68.297,27.543-104.262,49.88
		c-35.703,22.159-69.026,48.033-98.917,75.964c-29.923,27.934-56.608,58.14-78.89,88.96c-22.44,31.051-40.561,62.938-53.012,93.946
		c-12.631,31.461-19.527,62.194-19.14,90.4c0.244,17.682,3.318,33.354,8.938,46.959c5.699,13.729,14.021,25.354,24.646,34.684
		c10.783,9.455,23.593,17.132,39.088,20.629c15.949,3.627,31.769,6.25,52.009,7.123l4.226-0.096l29.989-1.913l29.323-3.722
		l14.524-2.562l26.798-5.958l25.892-7.385l7.075-2.331l23.544-8.582l5.021-2.007c-27.139,11.14-52.771,17.713-75.925,19.946
		c-22.896,2.203-43.312,0.132-60.428-5.928c-16.89-5.99-30.507-15.836-40.125-29.341c-9.472-13.274-15.06-30.116-16.015-50.227
		c-1.068-22.573,3.757-47.234,13.324-72.511c9.456-25.002,23.594-50.715,41.355-75.765c17.646-24.886,38.974-49.239,62.986-71.704
		c24.014-22.452,50.858-43.145,79.696-60.712c28.983-17.667,57.386-30.621,84.021-38.886c26.941-8.363,52.204-11.99,74.481-10.856
		c22.604,1.149,42.229,7.196,57.417,18.199C1350.54,786.652,1361.438,802.957,1366.212,824.436"/>
	<path fill="#FFFFFF" d="M1037.125,445.97c-3.869,12.791-12.645,26.58-25.243,40.537c-12.725,14.095-29.323,28.328-48.64,41.849
		c-19.415,13.587-41.469,26.396-64.963,37.565c-23.495,11.173-48.301,20.638-73.155,27.577c-24.71,6.889-46.99,10.581-66.081,11.367
		c-18.912,0.784-34.618-1.297-46.438-5.903c-11.676-4.549-19.543-11.561-22.979-20.733c-3.398-9.044-2.443-20.188,3.384-33.138
		c1.767-3.91,3.919-7.868,6.461-11.868c2.511-3.981,5.395-7.998,8.6-12.028c3.207-4.019,6.736-8.05,10.558-12.072
		c3.821-4.016,7.934-8.022,12.307-12.016l11.805-10.337l11.594-9.384l10.996-8.267l10.978-7.699l10.816-7.068l10.492-6.37
		l10.396-5.902c0,0-21.064,16.136-31.445,29.283c-5.828,7.376-10.571,13.828-13.276,20.119c-2.703,6.32-2.946,11.688-1.004,15.987
		c1.927,4.332,6.04,7.57,11.998,9.594c5.991,2.024,13.845,2.817,23.22,2.25c9.407-0.582,20.32-2.543,32.369-6.007
		c12.095-3.465,24.158-8.11,35.557-13.537c11.434-5.423,22.186-11.607,31.705-18.157c9.504-6.534,17.748-13.415,24.174-20.248
		c6.397-6.803,10.994-13.537,13.213-19.812c2.203-6.251,1.88-11.456-0.599-15.521c-2.461-4.031-7.026-6.961-13.343-8.662
		c-6.25-1.701-13.99-1.304-23.154,0.436c-8.971,1.701-19.447,2.461-31.04,5.902c-7.497,2.21-11.756,3.87-18.944,7.165
		c21.939-11.367,35.008-16.743,58.6-24.158c15.253-4.793,25.696-7.578,39.703-10.088c16.305-2.915,30.053-2.704,42.438-1.675
		c12.454,1.035,23.01,3.649,31.235,7.789c8.289,4.168,14.233,9.885,17.342,17.064C1039.911,427.058,1040.17,435.81,1037.125,445.97
		L1037.125,445.97z M1343.251,991.602c0,0-5.438,14.784-10.329,23.495c-4.566,8.064-13.488,19.562-13.488,19.562
		s-2.979,3.92-4.938,6.412c-5.475,6.979-14.541,17.505-14.541,17.505l-12.176,13.228c-12.564,13.021-26.929,25.583-42.73,37.404
		c-15.852,11.87-33.128,22.962-51.441,32.967c-18.36,10.012-37.693,18.947-57.677,26.43c-19.932,7.513-40.446,13.565-61.107,17.939
		c-4.064,0.841-8.098,1.652-12.08,2.332c-3.981,0.712-7.916,1.358-11.818,1.91c-3.887,0.551-7.725,1.036-11.529,1.456
		c-3.771,0.423-7.513,0.747-11.204,1.006l-22.569,0.971l-4.956,0.031l-24.143-0.679l-24.531-2.203c0,0-4.21-0.551-6.865-0.906
		c-10.218-1.457-15.966-2.396-26.037-4.501c-10.267-2.104-26.119-6.313-26.119-6.313l-13.131-4.438l-3.594-1.717
		c9.293,3.627,21.39,7.026,33.404,8.873c12.095,1.847,25,2.884,38.648,3.075c13.731,0.164,28.191-0.484,43.313-2.104
		c15.171-1.585,31.008-4.11,47.393-7.608c37.563-7.997,74.776-20.4,110.104-36.108c35.364-15.738,68.622-34.717,98.385-55.8
		c29.582-20.951,55.506-43.879,76.521-67.649c7.271-8.225,13.245-15.688,19.333-24.886
		C1343.576,990.973,1343.251,991.604,1343.251,991.602L1343.251,991.602z M1127.542,413.991l26.359,9.917l25.987,11.95l9.164,4.753
		c7.271,3.845,13.617,8.32,18.961,13.423c5.376,5.141,9.717,10.905,12.954,17.301c3.239,6.445,5.345,13.512,6.187,21.196
		c0.875,7.765,0.455,16.143-1.357,25.131c-4.729,23.729-18.622,49.352-39.834,75.355c-21.601,26.451-50.647,53.118-85.104,78.354
		c-34.781,25.485-74.81,49.306-117.699,69.763c-42.943,20.459-88.377,37.38-133.861,49.096
		c-40.675,10.476-77.574,15.82-109.669,16.557c-31.623,0.737-58.388-3.012-79.438-10.67c-20.679-7.505-35.752-18.751-44.544-33.194
		c-8.631-14.16-11.189-31.354-7.045-51.119l1.849-8.419l7.526-27.932l9.394-27.007l9.65-22.843l8.872-18.618l-1.474,3.763
		c0.308-0.688-0.354,0.77-0.354,0.77c-8.39,18.599-10.087,34.822-5.782,48.222c4.422,13.836,15.238,24.65,31.606,31.945
		c16.662,7.409,39.022,11.148,66.16,10.662c27.495-0.477,59.782-5.293,95.664-14.943c36.142-9.731,72.281-23.364,106.479-39.64
		c34.198-16.272,66.159-35.055,94.14-55.053c27.754-19.859,51.378-40.788,69.206-61.514c17.617-20.436,29.452-40.578,34.101-59.23
		c2.396-9.634,2.755-18.387,1.229-26.224c-1.49-7.767-4.792-14.613-9.714-20.531c-4.891-5.87-11.367-10.817-19.236-14.823
		c-5.312-2.694-11.222-4.972-17.747-6.801l-9.683-2.606c4.191,0.614,6.542,1.062,9.683,1.854c0,0,9.488,2.332,15.479,4.057
		C1114.281,409.368,1127.542,413.991,1127.542,413.991L1127.542,413.991z M1302.529,531.456l19.607,24.611l17.777,26.417
		l7.967,13.486c2.365,4.202,4.391,8.592,6.023,13.188c1.669,4.616,2.964,9.433,3.854,14.444c0.906,5.034,1.426,10.28,1.522,15.723
		c0.097,5.465-0.211,11.116-0.955,16.978c-3.839,30.238-18.833,62.672-42.958,95.379c-24.612,33.389-58.534,66.803-99.323,98.156
		c-41.257,31.712-89.136,61.012-140.838,85.729c-51.75,24.732-106.705,44.616-161.904,57.571
		c-39.313,9.229-75.795,14.248-108.729,15.446c-32.513,1.166-61.433-1.376-86.189-7.236c-24.37-5.748-44.643-14.703-60.332-26.427
		c-15.432-11.515-26.409-25.665-32.562-42.074l-6.233-17.908l-8.517-30.628l-5.978-30.896l-1.247-8.687l-1.717-17.393
		c-0.209-1.659,0.065,0,0.065,0c2.187,16.581,9.116,31.082,20.597,43.152c12.872,13.536,31.315,23.996,54.762,30.87
		c23.853,7.003,52.818,10.272,86.125,9.276c33.812-0.995,71.927-6.37,113.476-16.598c52.008-12.791,103.903-31.818,152.852-55.19
		c48.936-23.355,94.368-50.785,133.685-80.304c38.893-29.203,71.424-60.171,95.289-90.969
		c23.396-30.213,38.276-60.057,42.666-87.745c1.229-7.771,1.603-15.155,1.166-22.143c-0.422-6.946-1.668-13.497-3.646-19.648
		c-1.96-6.12-4.679-11.844-8.048-17.171c-2.088-3.279-4.438-6.315-7.026-9.301v-0.09l16.289,17.121L1302.529,531.456
		L1302.529,531.456z M1399.164,761.416c2.38,24.943,3.156,39.509-0.843,64.241c-6.168,38.222-16.128,60.746-37.551,91.883
		c-21.825,31.688-52.105,63.067-88.668,92.214c-36.948,29.438-79.954,56.315-126.57,78.645
		c-46.635,22.359-96.395,39.946-146.62,50.858c-26.037,5.67-50.778,9.23-73.998,10.853c-23.06,1.617-44.562,1.296-64.283-0.778
		c-19.527-2.039-37.291-5.827-53.077-11.172c-15.608-5.312-29.259-12.146-40.804-20.322l-24.192-18.848l-20.207-18.216
		c0,0-13.764-13.439-21.745-22.768c-5.731-6.688-14.006-17.697-14.006-17.697c9.326,10.671,20.789,19.916,35.2,27.512
		c16.84,8.874,36.983,15.512,60.104,19.592c23.414,4.145,49.821,5.666,78.823,4.259c29.323-1.41,61.204-5.812,95.146-13.438
		c54.519-12.259,108.695-31.593,159.589-55.944c50.827-24.337,97.815-53.435,138.183-85.121
		c39.932-31.34,73.012-64.906,96.877-98.619c23.398-33.056,37.743-65.999,41.096-96.925c0.355-3.329,0.584-6.605,0.682-9.829
		c0.113-3.214-0.372-6.688-0.713-9.619c-0.354-3.262,4.082,14.062,4.082,14.062S1398.225,751.555,1399.164,761.416L1399.164,761.416
		z"/>
</g>
</svg>
